<?xml version="1.0" encoding="utf-8"?>
<svg version="1.1" xmlns="http://www.w3.org/2000/svg" xmlns:xlink="http://www.w3.org/1999/xlink" viewBox="0 0 100 300">
	<symbol id="sword" viewBox="0 0 100 100">
		<path d="M15 15L70 60 75 55 75 70 80 75 80 80 75 80 70 75 55 75 60 70z" />
	</symbol>
	<symbol id="arc-arrow" viewBox="-70 -70 140 140">
		<path class="arc-path" d="M0 -50A 50 50 0 0 1 30 40" />
		<path d="M-25 -50L10 -70 10 -30z" />
	</symbol>
	<style>
		*{
			fill: white;
			stroke: none;
		}
		.arc-path{
			fill: none;
			stroke-width: 10;
			stroke: white;
			stroke-linecap: round;
		}
	</style>
	<path id="lightning" d="M55 20L35 55 50 55 45 80 65 45 50 45z" transform="scale(1.2) translate(-10, -10)"/>
	<g id="refresh" transform="translate(0, 100)">
		<use xlink:href="#arc-arrow" x="10" y="10" width="80" height="80" />
		<use xlink:href="#arc-arrow" x="10" y="10" width="80" height="80" transform="scale(-1, -1) translate(-100, -100)"/>
	</g>
	<g id="swords" transform="translate(0, 200)">
		<use xlink:href="#sword" x="0" y="0" width="100" height="100" />
		<use xlink:href="#sword" x="0" y="0" width="100" height="100" transform="scale(-1, 1) translate(-100, 0)" />
	</g>
</svg>